<?xml version="1.0" standalone="no"?>
<!DOCTYPE svg PUBLIC "-//W3C//DTD SVG 20010904//EN"
 "http://www.w3.org/TR/2001/REC-SVG-20010904/DTD/svg10.dtd">
<svg version="1.0" xmlns="http://www.w3.org/2000/svg"
 width="500.000000pt" height="500.000000pt" viewBox="0 0 500.000000 500.000000"
 preserveAspectRatio="xMidYMid meet">
<metadata>
Created by potrace 1.16, written by Peter Selinger 2001-2019
</metadata>
<g transform="translate(0.000000,500.000000) scale(0.100000,-0.100000)"
fill="#000000" stroke="none">
<path d="M2328 4341 c-305 -142 -528 -252 -528 -259 0 -8 7 -11 18 -8 229 68
344 70 377 6 22 -43 22 -2657 0 -2800 -8 -52 -15 -105 -15 -117 l0 -23 460 0
c253 0 460 4 460 9 0 4 -28 18 -62 31 -84 30 -138 85 -162 166 -16 51 -19 109
-23 427 -5 355 -4 369 13 365 10 -2 195 -210 411 -463 366 -428 393 -463 393
-497 l0 -38 458 0 457 0 -53 29 c-141 78 -305 224 -511 456 -195 218 -731 844
-731 853 0 20 413 414 515 490 141 106 333 203 470 237 101 26 130 40 104 50
-8 3 -181 4 -384 3 -309 -3 -370 -5 -370 -17 0 -8 21 -20 50 -28 28 -8 61 -25
74 -38 20 -19 23 -29 17 -62 -7 -34 -55 -85 -453 -478 -245 -242 -449 -441
-454 -443 -15 -6 -10 2162 5 2291 8 74 9 107 2 106 -6 -1 -248 -112 -538 -248z"/>
<path d="M1115 4227 c-95 -32 -160 -85 -206 -169 -33 -61 -34 -67 -34 -173 0
-97 3 -116 25 -160 31 -64 102 -134 165 -165 74 -35 209 -40 287 -10 79 29
150 96 190 178 30 60 33 75 32 152 -1 149 -61 254 -185 320 -53 28 -74 33
-148 36 -54 3 -101 -1 -126 -9z"/>
<path d="M1055 3239 c-203 -15 -378 -28 -387 -28 -44 -2 -10 -18 67 -33 47 -9
107 -27 133 -39 l47 -24 3 -935 c3 -1089 -2 -1214 -68 -1442 -56 -195 -191
-379 -327 -448 -71 -36 -31 -36 73 1 257 90 610 332 862 593 103 107 113 120
106 144 -4 15 -6 525 -5 1135 l3 1107 -69 -1 c-37 -1 -234 -14 -438 -30z"/>
</g>
</svg>
